<svg xmlns="http://www.w3.org/2000/svg" width="97" height="24" fill="none"><g clip-path="url(#clip0)"><path fill="#7E7E83" d="M75.925 28.956h1.952c1.75 0 2.73.79 2.73 2.441 0 1.718-.84 2.688-2.73 2.688h-1.952v-5.13zm.755 4.554h1.259c.514 0 1.907-.129 1.907-2.02 0-1.22-.498-1.96-1.89-1.96H76.68v3.98zm-8.926-4.554h.8l2.992 4.159h.017v-4.16h.716v5.13h-.828l-2.964-4.117h-.017v4.117h-.716v-5.13zm-6.084 0h.833l2.22 5.129h-.839l-.62-1.544h-2.4l-.637 1.544h-.777l2.22-5.13zm-.565 3.01h1.924l-.946-2.393h-.016l-.962 2.392zm-7.947-3.01h.755v4.554h3.009v.575h-3.764v-5.13zm-7.998 0h2.674c1.068 0 1.728.524 1.728 1.343 0 .617-.302 1.128-.984 1.3v.015c.66.115.794.553.85 1.056.05.502.016 1.063.335 1.415h-.844c-.213-.208-.095-.762-.207-1.265-.078-.502-.213-.927-.946-.927h-1.85v2.192h-.756v-5.13zm2.333 2.363c.71 0 1.314-.166 1.314-.913 0-.502-.302-.877-1.012-.877h-1.88v1.79h1.578zm-10.1-2.363h3.92v.573h-3.166v1.632h2.948v.574h-2.948v1.775h3.188v.575h-3.943v-5.13zm-7.976 4.554l3.535-3.98h-3.261v-.574h4.15v.573l-3.524 3.981h3.619v.575h-4.519v-.575zm-5.498-3.98h-1.89v-.574h4.541v.573h-1.895v4.556h-.756v-4.556zm-5.737 4.555h.755v-5.129h-.755v5.13zm-4.81 0h-.788l-1.298-4.31h-.017l-1.308 4.31h-.788l-1.454-5.129h.772l1.112 4.268h.011l1.275-4.268h.817l1.259 4.268h.016l1.152-4.268h.755l-1.516 5.13zm-9.239-3.627c-.09-.734-.626-1.05-1.41-1.05-.637 0-1.268.208-1.268.877 0 .632.906.725 1.817.912.906.187 1.818.474 1.818 1.48 0 1.092-1.186 1.53-2.22 1.53-1.276 0-2.35-.56-2.35-1.81h.716c0 .863.8 1.236 1.656 1.236.682 0 1.443-.194 1.443-.935 0-.703-.912-.825-1.818-1.005C1.611 31.513.7 31.276.7 30.335c0-1.041 1.024-1.502 2.058-1.502 1.164 0 2.042.495 2.092 1.624h-.716zM39.731 1.42c.318.458 1.012.835 1.548.835h19.357c.537 0 1.235.374 1.549.833l2.818 4.043c.313.456.465 1.281.336 1.834L61.978 22.81c-.134.551-.682 1.003-1.214 1.003H56.81c-.537 0-.86-.452-.733-1.003L59.584 8.4c.134-.552-.196-1.004-.727-1.004h-4.39c-.531 0-1.08.452-1.213 1.004l-3.502 14.41c-.134.551-.682 1.003-1.213 1.003h-3.943c-.537 0-.867-.452-.733-1.003L47.37 8.4c.134-.552-.19-1.004-.727-1.004h-4.402c-.537 0-1.085.452-1.214 1.004l-3.49 14.425c-.14.553-.676 1.004-1.213 1.004H32.38c-.531 0-.861-.451-.727-1.004l3.758-15.554c.135-.55-.01-1.377-.335-1.834l-.38-.519a1.083 1.083 0 01.206-1.449l3.26-2.564c.426-.338 1.035-.239 1.354.222l.214.292zm36.469.835c-.532 0-1.32.278-1.75.62l-4.66 3.697c-.425.34-.889 1.071-1.023 1.622l-2.304 9.484c-.134.555.017 1.38.33 1.837l2.405 3.481c.313.46 1.012.834 1.543.834h20.15c.532 0 1.08-.45 1.214-1.002l.777-3.135c.14-.552-.19-1.003-.721-1.003H74.17c-.51 0-.705-.228-.862-.478l-.514-.76c-.263-.463-.235-.69-.1-1.24l1.895-7.81c.134-.553.682-1.005 1.214-1.005h19.076c.531 0 1.074-.452 1.214-1.004l.754-3.134c.135-.552-.195-1.004-.727-1.004H76.2zm-47.36 10.41l2.45-1.936c1.012-.828 1.314-2.527.565-3.702L29.132 3.09c-.314-.46-1.013-.836-1.55-.836h-15.59c-.537 0-.867-.45-.727-1.002v-.123c.134-.551-.196-1-.727-1l-3.95.007c-.531.002-1.035.29-1.169.841L.135 22.827c-.134.552.196 1.003.727 1.003h21.603c.537 0 1.326-.276 1.756-.616l5.056-3.978c1.13-.934 1.28-2.979.514-4.092l-1.096-1.592c-.128-.218-.095-.692.146-.888zm-6.275 2.6c.957 0 1.17.127 1.46.442.403.44.598.783.598 1.046 0 .324-.676.824-1.28 1.267l-.163.117c-.648.48-.99.565-2.259.565H7.685c-.185 0-.336-.07-.425-.198-.096-.132-.118-.306-.073-.494l.47-1.937c.1-.437.548-.809.973-.809h13.936zm1.896-7.894c.957 0 1.17.128 1.46.443.402.44.604.784.604 1.047 0 .32-.682.82-1.286 1.263l-.168.12c-.649.482-.985.565-2.26.565H9.602a.509.509 0 01-.43-.198.57.57 0 01-.073-.494l.465-1.937c.106-.439.553-.81.984-.81h13.914z"/></g><defs><clipPath id="clip0"><path fill="#fff" d="M0 0h97v24H0z"/></clipPath></defs></svg>