<svg xmlns="http://www.w3.org/2000/svg" width="273" height="24" fill="none"><g clip-path="url(#clip0)"><path fill="#7E7E83" fill-rule="evenodd" d="M0 23.872v.07l11.928.013c.281-.044 2.177-3.827 2.436-4.32 1.657-3.404 4.08-7.45 5.793-10.931.175-.323.98-2.032 1.259-2.097h2.244c.277.157.043-.138.255.334l3.736 12.106h7.078c1.428 0 .945.101 1.716-.61.249-.203.443-.34.677-.544l4.897-4.47a5.44 5.44 0 00.633-.59l6.143-5.557c.523-.55.624-.683 1.67-.679.705 0 1.642-.038 2.331.051l-9.22 17.269H55.5c.247-.071.783-1.23 1.004-1.644l2.624-4.894c1.126-2.198 2.395-4.368 3.468-6.554a86.966 86.966 0 011.77-3.356C68.385.109 68.57.053 62.481.053L44.816.072c-.432.095-5.757 5.664-6.361 6.283L36.53 8.237c-.69.676-2.653 2.844-3.136 3.128L30.13.074c-2.02-.16-4.65-.02-6.75-.02-11.746 0-10.069-.99-13.992 6.277-2.286 4.242-4.695 9.029-7.031 13.204-.402.7-2.061 4.01-2.357 4.337zM115.578.043c-9.989 0-19.981.006-29.975.016-3.687 0-11.122-.503-13.417 1.55-.74.681-.986 1.155-1.55 2.185l-7.779 14.59c-.881 1.601-2.569 3.94-.408 4.978 1.892.9 8.125.577 10.57.577h29.901c.408-.713 3.289-5.96 3.332-6.334l-31.491-.04 1.187-2.187h24.838l3.456-6.654H79.574c.04-.48.794-1.523 1-2.102h31.566l3.438-6.563V.043zm28.986 15.367c3.001-.203 6.229.295 9.155-.416 2.652-.63 3.415-2.66 4.552-4.919 1.059-2.13 2.201-4.185 3.291-6.275.657-1.331 1.224-2.262-.255-3.084-1.125-.61-2.7-.62-4.081-.62-12.65-.061-25.429.156-38.1-.047l-12.67 23.914 11.72-.024c1.02-1.686 8.977-17.228 9.355-17.324h15.821c1.058 0 4.388-.203 4.998.228.051.427-.408 1.26-.612 1.554-.369.476-1.073.331-1.763.331h-13.148c-.344.181-.408.547-.573.856-.502.97-2.991 5.444-3.144 5.958.394.35.808.679 1.238.984l8.658 6.483c1.544 1.178 1.001.95 3.417.95h12.973c-.549-.597-10.418-8.018-10.832-8.532v-.017zm93.221-5.282c.235-.646.915-1.76 1.268-2.438.632-1.115 1.112-1.07 2.652-1.066H256.6c1.003 0 2.874-.262 2.105 1.164-.385.705-.816 1.753-1.246 2.33h-19.688l.014.01zM273 2.873V1.847c-.3-.465-.273-.926-1.302-1.353a6.622 6.622 0 00-2.14-.38c-1.587-.11-3.338-.055-4.936-.055H244.49c-3.169 0-6.864-.17-9.949.055-3.854.258-4.537 1.44-5.964 4.196-1.134 2.218-2.322 4.368-3.468 6.562a165.328 165.328 0 01-1.737 3.275l-3.503 6.54c-.579 1.062-1.206 2.212-1.714 3.268h12.097c.329-.146.498-.682.647-1l2.926-5.436c.335-.636.749-1.582 1.169-2.143h19.629c-.064.579-3.896 7.216-4.463 8.58h11.689c.325-.783.939-1.874 1.372-2.676.508-.906.938-1.703 1.401-2.593.463-.89.918-1.77 1.429-2.677l2.799-5.283c.481-.863.906-1.749 1.375-2.614L273 2.873zM193.342 6.59h9.16c9.838 0 9.928-.711 7.665 3.415-.526.982-1.04 1.936-1.54 2.922-.531 1.03-1.067 1.95-1.584 2.964-.681 1.347-.942 1.666-2.791 1.666-2.191 0-15.698.093-16.731-.027l5.819-10.94h.002zm-20.428 17.344c2.29.14 4.991 0 7.309 0h21.995c4.793 0 9.314.61 12.507-2.068a12.62 12.62 0 003.185-4.161c1.194-2.438 6.921-12.78 7.523-14.4 1.1-2.863-.8-3.15-3.377-3.216-2.393-.083-4.852-.045-7.253-.045h-21.989c-2.32 0-4.956-.101-7.245.016-2.069 4.015-4.214 7.997-6.342 11.957-1.045 1.98-2.199 3.988-3.183 5.999-.52 1.048-1.093 1.958-1.589 2.96-.472.94-1.147 2.032-1.531 2.958h-.01zm-17.496 0h12.981c.257-.039 1.491-2.503 1.659-2.86.518-1.033 1.118-2.01 1.614-3.026.991-1.989 2.109-4.04 3.203-6.013 1.836-3.369 3.716-7.166 5.572-10.496.237-.455.543-1.123.751-1.442l-13.034-.04-12.746 23.884v-.008z" clip-rule="evenodd"/></g><defs><clipPath id="clip0"><path fill="#fff" d="M0 0h273v24H0z"/></clipPath></defs></svg>