<svg xmlns="http://www.w3.org/2000/svg" width="200" height="24" fill="none"><g clip-path="url(#clip0)"><path fill="#7E7E83" d="M48.313.253H1.625L0 4.774h16.079L9.095 23.916H25.01l6.983-19.142h14.7l1.62-4.52zm117.255 0h-16.807l-8.609 23.663h16.812L165.568.253zm-3.083 10.983l9.988 12.68h19.326L180.676 11.4 200.001.253H180.35l-17.865 10.983zm-19.08-6.462l1.609-4.52h-42.943l-5.926 16.232c-.402 1.052-.402 2.265.322 3.153.245.32 2.192 2.4 2.599 2.905a3.62 3.62 0 002.924 1.372h34.431l1.609-4.521h-24.02c-1.464 0-2.192-1.133-1.79-2.18l1.058-2.99h26.635l1.609-4.521h-26.631l1.786-4.93h26.728zM94.03.253H51.316L42.71 23.916h16.32l6.904-19.142h12.18c1.296 0 1.787.973 1.541 1.941-.326.968-.732 2.1-1.054 2.825a2.942 2.942 0 01-1.143 1.33 2.964 2.964 0 01-1.7.446h-11.45L74.298 24h18.839l-8.448-9.45h5.113a4.5 4.5 0 002.65-.713 4.463 4.463 0 001.734-2.117c.733-1.776 2.273-6.137 2.764-7.602.893-2.504-.49-3.877-2.924-3.877"/></g><defs><clipPath id="clip0"><path fill="#fff" d="M0 0h200v24H0z"/></clipPath></defs></svg>