<svg xmlns="http://www.w3.org/2000/svg" width="16" height="16" fill="none"><path fill="#27C177" d="M13.328 4.833H9.587l.748-2.245a1.338 1.338 0 00-.183-1.201A1.34 1.34 0 009.07.833H7.995a.669.669 0 00-.513.24L4.35 4.833H2.66c-.735 0-1.333.598-1.333 1.333v6c0 .736.598 1.334 1.333 1.334h8.872a1.34 1.34 0 001.248-.866l1.838-4.9a.668.668 0 00.043-.234V6.166c0-.735-.599-1.333-1.334-1.333zM2.661 6.166h1.334v6H2.66v-6zM13.328 7.38l-1.795 4.787H5.328V5.741l2.979-3.575h.764L8.029 5.288a.665.665 0 00.632.878h4.667V7.38z"/></svg>