<svg xmlns="http://www.w3.org/2000/svg" width="25" height="24" fill="none"><path fill="var(--add_cart-hover-color, #fff)" d="M11.5 9h2V6h3V4h-3V1h-2v3h-3v2h3v3zm-4 9c-1.1 0-1.99.9-1.99 2s.89 2 1.99 2 2-.9 2-2-.9-2-2-2zm10 0c-1.1 0-1.99.9-1.99 2s.89 2 1.99 2 2-.9 2-2-.9-2-2-2zm-9.83-3.25l.03-.12.9-1.63h7.45c.75 0 1.41-.41 1.75-1.03l3.86-7.01L19.92 4h-.01l-1.1 2-2.76 5H9.03l-.13-.27L6.66 6l-.95-2-.94-2H1.5v2h2l3.6 7.59-1.35 2.45c-.16.28-.25.61-.25.96 0 1.1.9 2 2 2h12v-2H7.92c-.13 0-.25-.11-.25-.25z"/></svg>