<svg xmlns="http://www.w3.org/2000/svg" width="22" height="22" fill="none"><path fill="var(--footer-active-color, #797979)" stroke="#797979" stroke-width=".2" d="M20.014 7.814a4.867 4.867 0 00-.156-1.299 4.545 4.545 0 00-.481-1.17 4.228 4.228 0 00-.781-1.028 4.914 4.914 0 00-1.573-1.053h0a4.863 4.863 0 00-3.693 0h0a5.194 5.194 0 00-1.507.974h0l-.009.01-.06.073-.754.753-.754-.753-.06-.073h0l-.01-.01a5.193 5.193 0 00-1.506-.973h0-.001a4.863 4.863 0 00-3.693 0h0a4.914 4.914 0 00-1.573 1.052 4.62 4.62 0 00-1.262 2.199c-.11.424-.162.86-.155 1.298 0 .412.052.823.156 1.222h0c.109.403.266.791.467 1.157h0l.001.001c.218.376.485.721.793 1.027 0 0 0 0 0 0l7.526 7.526.07.07.071-.07 7.526-7.525s0 0 0 0c.308-.304.573-.651.78-1.028a4.657 4.657 0 00.638-2.38zm0 0v.001l-.1-.001h.1s0 0 0 0zm-1.512-.11c.016.273-.004.545-.057.812h-.035l-.02.075a3.325 3.325 0 01-.852 1.495s0 0 0 0l-6.564 6.551-6.564-6.55s0 0 0 0a3.594 3.594 0 01-.544-.706 3.72 3.72 0 01-.334-.802 4.039 4.039 0 01-.099-.855c.002-.296.035-.59.1-.88.077-.28.189-.55.333-.802h0c.148-.259.33-.494.544-.704a3.606 3.606 0 011.101-.743 3.466 3.466 0 012.573 0c.408.17.776.418 1.087.73 0 0 0 0 0 0l1.732 1.744.071.072.071-.072 1.732-1.744s0 0 0 0a3.36 3.36 0 011.088-.73 3.466 3.466 0 012.572 0c.41.177.784.43 1.102.743h0l.001.001c.214.203.393.439.528.7h0l.002.003c.286.505.435 1.076.432 1.657h0v.006z"/></svg>