<svg xmlns="http://www.w3.org/2000/svg" width="22" height="22" fill="none"><path fill="var(--heart-hover-color, #4D4D4D)" stroke="(--heart-hover-color,#4d4d4d)" stroke-width=".2" d="M20.014 7.814a4.875 4.875 0 00-.156-1.299 4.542 4.542 0 00-.48-1.17 4.227 4.227 0 00-.782-1.028 4.915 4.915 0 00-1.572-1.053h0a4.863 4.863 0 00-3.693 0h-.002a5.194 5.194 0 00-1.506.974h0l-.008.01-.061.073-.754.753-.754-.753-.06-.073h0l-.01-.01a5.194 5.194 0 00-1.506-.973h0a4.863 4.863 0 00-3.693 0h0a4.914 4.914 0 00-1.573 1.052 4.62 4.62 0 00-1.262 2.199c-.11.424-.163.86-.156 1.298 0 .412.052.823.156 1.222h0c.109.403.266.791.467 1.157h0l.002.001c.217.376.484.721.792 1.027 0 0 0 0 0 0l7.526 7.526.07.07.072-.07 7.525-7.525s0 0 0 0c.309-.304.573-.651.781-1.028a4.657 4.657 0 00.637-2.38zm0 0v.001l-.1-.001h.1s0 0 0 0zm-1.511-.11a3.25 3.25 0 01-.058.812h-.034l-.02.075a3.325 3.325 0 01-.853 1.495l-6.564 6.551-6.563-6.55s0 0 0 0a3.595 3.595 0 01-.545-.706 3.72 3.72 0 01-.333-.802 4.04 4.04 0 01-.1-.855 4.18 4.18 0 01.1-.88c.077-.28.189-.55.333-.802h0c.148-.259.331-.494.544-.704a3.606 3.606 0 011.102-.743 3.466 3.466 0 012.572 0c.408.17.776.418 1.088.73 0 0 0 0 0 0l1.731 1.744.071.072.071-.072 1.732-1.744s0 0 0 0c.312-.312.681-.56 1.088-.73a3.466 3.466 0 012.572 0c.41.177.784.43 1.102.743h0l.001.001c.214.203.393.439.528.7h0l.002.003c.286.505.435 1.076.432 1.657h0v.006z"/></svg>