<svg xmlns="http://www.w3.org/2000/svg" width="40" height="40" fill="none"><path fill="#fff" d="M26.25 20a6.25 6.25 0 01-12.5 0c0-.356.037-.704.102-1.042h-2.185v8.327c0 .58.468 1.048 1.048 1.048h14.573a1.048 1.048 0 001.045-1.048v-8.327h-2.185c.064.338.102.686.102 1.042zM20 24.167a4.168 4.168 0 10-.003-8.337A4.168 4.168 0 0020 24.167zm5-8.542h2.498a.627.627 0 00.627-.625v-2.498a.627.627 0 00-.627-.627H25a.627.627 0 00-.627.627V15a.63.63 0 00.627.625zM20 0a20 20 0 100 40 20 20 0 000-40zm10.417 28.102a2.322 2.322 0 01-2.315 2.315H11.898a2.322 2.322 0 01-2.315-2.315V11.898a2.322 2.322 0 012.315-2.315h16.204a2.322 2.322 0 012.315 2.315v16.204z"/></svg>