<?xml version="1.0" encoding="utf-8"?><svg viewBox="0 0 294 214" xmlns="http://www.w3.org/2000/svg" xmlns:xlink="http://www.w3.org/1999/xlink"><style>:root>svg{display:none}:root>svg:target{display:block}</style><svg fill="none" viewBox="0 0 48 48" id="account_balance" xmlns="http://www.w3.org/2000/svg"><path fill="#fff" d="M8 20v14h6V20H8zm12 0v14h6V20h-6zM4 44h38v-6H4v6zm28-24v14h6V20h-6zM23 2L4 12v4h38v-4L23 2z"/></svg><svg fill="none" viewBox="0 0 48 48" id="account_balance_wallet" xmlns="http://www.w3.org/2000/svg"><path fill="#fff" d="M42 36v2c0 2.2-1.8 4-4 4H10c-2.22 0-4-1.8-4-4V10c0-2.2 1.78-4 4-4h28c2.2 0 4 1.8 4 4v2H24c-2.22 0-4 1.8-4 4v16c0 2.2 1.78 4 4 4h18zm-18-4h20V16H24v16zm8-5c-1.66 0-3-1.34-3-3s1.34-3 3-3 3 1.34 3 3-1.34 3-3 3z"/></svg><svg fill="none" viewBox="0 0 25 24" id="add_cart" xmlns="http://www.w3.org/2000/svg"><path fill="var(--add_cart-hover-color, #fff)" d="M11.5 9h2V6h3V4h-3V1h-2v3h-3v2h3v3zm-4 9c-1.1 0-1.99.9-1.99 2s.89 2 1.99 2 2-.9 2-2-.9-2-2-2zm10 0c-1.1 0-1.99.9-1.99 2s.89 2 1.99 2 2-.9 2-2-.9-2-2-2zm-9.83-3.25l.03-.12.9-1.63h7.45c.75 0 1.41-.41 1.75-1.03l3.86-7.01L19.92 4h-.01l-1.1 2-2.76 5H9.03l-.13-.27L6.66 6l-.95-2-.94-2H1.5v2h2l3.6 7.59-1.35 2.45c-.16.28-.25.61-.25.96 0 1.1.9 2 2 2h12v-2H7.92c-.13 0-.25-.11-.25-.25z"/></svg><svg fill="none" viewBox="0 0 26 26" id="arrow" xmlns="http://www.w3.org/2000/svg"><path class="adarrow-path" fill="var(--arrow-hover-color, #000)" style="transition:fill .3s ease" fill-opacity=".55" d="M13 4.333l1.527 1.528-6.044 6.056h13.184v2.166H8.483l6.044 6.056L13 21.667 4.333 13 13 4.333z"/></svg><svg fill="none" viewBox="0 0 16 16" id="arrow-partners" xmlns="http://www.w3.org/2000/svg"><path fill="#797979" d="M8 0L6.59 1.41 12.17 7H0v2h12.17l-5.58 5.59L8 16l8-8-8-8z"/></svg><svg fill="none" viewBox="0 0 24 24" id="cart" xmlns="http://www.w3.org/2000/svg"><path fill="#4D4D4D" d="M7.854 18c-1.074 0-1.942.9-1.942 2s.868 2 1.942 2c1.073 0 1.95-.9 1.95-2s-.877-2-1.95-2zm9.756 0c-1.073 0-1.942.9-1.942 2s.869 2 1.942 2 1.951-.9 1.951-2-.878-2-1.951-2zm-9.59-3.25l.029-.12.878-1.63h7.268c.732 0 1.376-.41 1.707-1.03L22 4H9.805v2h9.083l-2.693 5H9.346l-.126-.27L7.034 6l-.927-2-.917-2H2v2h1.951l3.512 7.59-1.317 2.45c-.156.28-.244.61-.244.96 0 1.1.878 2 1.952 2H19.56v-2H8.263a.25.25 0 01-.243-.25z"/></svg><svg fill="none" viewBox="0 0 16 17" id="checkmark-green" xmlns="http://www.w3.org/2000/svg"><path fill="#6EE095" d="M6 11.28L3.22 8.5l-.947.94L6 13.167l8-8-.94-.94L6 11.28z"/></svg><svg fill="none" viewBox="0 0 10 8" id="chekmark" xmlns="http://www.w3.org/2000/svg"><path stroke="#fff" stroke-width="2" d="M1 3l3 3 5-5"/></svg><svg fill="none" viewBox="0 0 68 42" id="china" xmlns="http://www.w3.org/2000/svg"><g clip-path="url(#aiclip0)"><path fill="#fff" fill-rule="evenodd" d="M0-4.5h68v51H0v-51z" clip-rule="evenodd"/><path fill="#009246" fill-rule="evenodd" d="M0-4.5h22.663v51H0v-51z" clip-rule="evenodd"/><path fill="#CE2B37" fill-rule="evenodd" d="M45.337-4.5H68v51H45.337v-51z" clip-rule="evenodd"/><path fill="#DE2910" d="M0-.25h68v51H0v-51z"/><path fill="#FFDE00" d="M8.16 18.62l4.59-13.77 4.59 13.77L5.1 10.205h15.3L8.16 18.62zM28.068 5.114l-4.723 1.047 3.15-3.672-.309 4.942-2.62-4.375 4.502 2.058zm4.768 6.042l-4.76-.867 4.328-2.163-2.201 4.435-.72-5.049 3.353 3.644zm-.696 8.476l-3.992-2.733 4.834-.21-3.819 3.152 1.403-4.903 1.575 4.694zm-6.003 5.538l-2.627-4.064 4.539 1.674-4.74 1.432 3.188-3.98-.36 4.937z"/></g><defs><clipPath id="aiclip0"><rect width="68" height="42" fill="#fff" rx="4"/></clipPath></defs></svg><svg fill="none" viewBox="0 0 14 14" id="close" xmlns="http://www.w3.org/2000/svg"><path stroke="#797979" stroke-width="2" d="M1 1l12 12M1 13L13 1"/></svg><svg fill="none" viewBox="0 0 24 24" id="compare" xmlns="http://www.w3.org/2000/svg"><path fill="var(--compare-hover-color, #4D4D4D)" d="M10 20h3V4h-3v16zm-6 0h3v-8H4v8zM16 9v11h3V9h-3z"/></svg><svg fill="none" viewBox="0 0 24 17" id="compare-footer-bar" xmlns="http://www.w3.org/2000/svg"><g clip-path="url(#alclip0)"><path fill="#fff" d="M10 17.89h3V.255h-3V17.89zm-6 0h3V9.072H4v8.818zM16 5.766V17.89h3V5.766h-3z"/></g><defs><clipPath id="alclip0"><path fill="#fff" d="M0 0h24v17H0z"/></clipPath></defs></svg><svg fill="none" viewBox="0 0 48 48" id="credit_card" xmlns="http://www.w3.org/2000/svg"><path fill="#fff" d="M40 8H8c-2.22 0-3.98 1.78-3.98 4L4 36c0 2.22 1.78 4 4 4h32c2.22 0 4-1.78 4-4V12c0-2.22-1.78-4-4-4zm0 28H8V24h32v12zm0-20H8v-4h32v4z"/></svg><svg fill="none" viewBox="0 0 39 40" id="fb" xmlns="http://www.w3.org/2000/svg"><g clip-path="url(#anclip0)"><path fill="#fff" d="M39.002 20.123c0-11.115-8.732-20.125-19.5-20.125C8.728.001-.003 9.008-.003 20.126c0 10.042 7.132 18.367 16.453 19.877V25.941h-4.948v-5.815h4.953v-4.438c0-5.042 2.913-7.827 7.366-7.827 2.135 0 4.365.392 4.365.392v4.95h-2.46c-2.42 0-3.175 1.553-3.175 3.145v3.775h5.406l-.863 5.815h-4.546v14.063c9.321-1.51 16.454-9.835 16.454-19.878z"/></g><defs><clipPath id="anclip0"><path fill="#fff" d="M0 0h39v40H0z"/></clipPath></defs></svg><svg fill="none" viewBox="0 0 24 24" id="filter" xmlns="http://www.w3.org/2000/svg"><path fill="#797979" d="M10 18h4v-2h-4v2zM3 6v2h18V6H3zm3 7h12v-2H6v2z"/></svg><svg fill="none" viewBox="0 0 24 24" id="footer-bike" xmlns="http://www.w3.org/2000/svg"><path fill="var(--footer-active-color, #797979)" d="M15.5 5.5c1.1 0 2-.9 2-2s-.9-2-2-2-2 .9-2 2 .9 2 2 2zM5 12c-2.8 0-5 2.2-5 5s2.2 5 5 5 5-2.2 5-5-2.2-5-5-5zm0 8.5c-1.9 0-3.5-1.6-3.5-3.5s1.6-3.5 3.5-3.5 3.5 1.6 3.5 3.5-1.6 3.5-3.5 3.5zm5.8-10l2.4-2.4.8.8c1.3 1.3 3 2.1 5.1 2.1V9c-1.5 0-2.7-.6-3.6-1.5l-1.9-1.9c-.5-.4-1-.6-1.6-.6-.6 0-1.1.2-1.4.6L7.8 8.4c-.4.4-.6.9-.6 1.4 0 .6.2 1.1.6 1.4L11 14v5h2v-6.2l-2.2-2.3zM19 12c-2.8 0-5 2.2-5 5s2.2 5 5 5 5-2.2 5-5-2.2-5-5-5zm0 8.5c-1.9 0-3.5-1.6-3.5-3.5s1.6-3.5 3.5-3.5 3.5 1.6 3.5 3.5-1.6 3.5-3.5 3.5z"/></svg><svg fill="none" viewBox="0 0 24 24" id="footer-cart" xmlns="http://www.w3.org/2000/svg"><path fill="var(--footer-active-color, #797979)" d="M7 18c-1.1 0-1.99.9-1.99 2S5.9 22 7 22s2-.9 2-2-.9-2-2-2zm10 0c-1.1 0-1.99.9-1.99 2s.89 2 1.99 2 2-.9 2-2-.9-2-2-2zm-9.83-3.25l.03-.12.9-1.63h7.45c.75 0 1.41-.41 1.75-1.03L21.5 4H9v2h9.31l-2.76 5H8.53l-.13-.27L6.16 6l-.95-2-.94-2H1v2h2l3.6 7.59-1.35 2.45c-.16.28-.25.61-.25.96 0 1.1.9 2 2 2h12v-2H7.42c-.13 0-.25-.11-.25-.25z"/></svg><svg fill="none" viewBox="0 0 24 24" id="footer-compare" xmlns="http://www.w3.org/2000/svg"><path fill="var(--footer-active-color, #797979)" d="M10 20.889h3V3.253h-3v17.634zm-6 0h3V12.07H4v8.818zM16 8.764v12.123h3V8.766h-3z"/></svg><svg fill="none" viewBox="0 0 22 22" id="footer-heart" xmlns="http://www.w3.org/2000/svg"><path fill="var(--footer-active-color, #797979)" stroke="#797979" stroke-width=".2" d="M20.014 7.814a4.867 4.867 0 00-.156-1.299 4.545 4.545 0 00-.481-1.17 4.228 4.228 0 00-.781-1.028 4.914 4.914 0 00-1.573-1.053h0a4.863 4.863 0 00-3.693 0h0a5.194 5.194 0 00-1.507.974h0l-.009.01-.06.073-.754.753-.754-.753-.06-.073h0l-.01-.01a5.193 5.193 0 00-1.506-.973h0-.001a4.863 4.863 0 00-3.693 0h0a4.914 4.914 0 00-1.573 1.052 4.62 4.62 0 00-1.262 2.199c-.11.424-.162.86-.155 1.298 0 .412.052.823.156 1.222h0c.109.403.266.791.467 1.157h0l.001.001c.218.376.485.721.793 1.027 0 0 0 0 0 0l7.526 7.526.07.07.071-.07 7.526-7.525s0 0 0 0c.308-.304.573-.651.78-1.028a4.657 4.657 0 00.638-2.38zm0 0v.001l-.1-.001h.1s0 0 0 0zm-1.512-.11c.016.273-.004.545-.057.812h-.035l-.02.075a3.325 3.325 0 01-.852 1.495s0 0 0 0l-6.564 6.551-6.564-6.55s0 0 0 0a3.594 3.594 0 01-.544-.706 3.72 3.72 0 01-.334-.802 4.039 4.039 0 01-.099-.855c.002-.296.035-.59.1-.88.077-.28.189-.55.333-.802h0c.148-.259.33-.494.544-.704a3.606 3.606 0 011.101-.743 3.466 3.466 0 012.573 0c.408.17.776.418 1.087.73 0 0 0 0 0 0l1.732 1.744.071.072.071-.072 1.732-1.744s0 0 0 0a3.36 3.36 0 011.088-.73 3.466 3.466 0 012.572 0c.41.177.784.43 1.102.743h0l.001.001c.214.203.393.439.528.7h0l.002.003c.286.505.435 1.076.432 1.657h0v.006z"/></svg><svg fill="none" viewBox="0 0 24 24" id="footer-search" xmlns="http://www.w3.org/2000/svg"><path fill="var(--footer-active-color, #797979)" d="M15.864 14.32h-.813l-.288-.277A6.66 6.66 0 0016.38 9.69a6.69 6.69 0 10-6.69 6.69 6.66 6.66 0 004.354-1.617l.278.289v.813L19.467 21 21 19.467l-5.136-5.146zm-6.174 0a4.625 4.625 0 01-4.632-4.63A4.625 4.625 0 019.69 5.058a4.625 4.625 0 014.63 4.632 4.625 4.625 0 01-4.63 4.63z"/></svg><svg viewBox="0 0 8 11" id="geo" xmlns="http://www.w3.org/2000/svg"><path fill="#797979" d="M8 3.85C8 6.738 4 11 4 11S0 6.737 0 3.85C0 1.721 1.789 0 4 0c2.211 0 4 1.721 4 3.85zm-2.571 0c0-.759-.64-1.375-1.429-1.375s-1.429.616-1.429 1.375S3.211 5.225 4 5.225s1.429-.616 1.429-1.375z"/></svg><svg fill="none" viewBox="0 0 68 42" id="germany" xmlns="http://www.w3.org/2000/svg"><g clip-path="url(#avclip0)"><path fill="#fff" fill-rule="evenodd" d="M0-4.5h68v51H0v-51z" clip-rule="evenodd"/><path fill="#009246" fill-rule="evenodd" d="M0-4.5h22.663v51H0v-51z" clip-rule="evenodd"/><path fill="#CE2B37" fill-rule="evenodd" d="M45.337-4.5H68v51H45.337v-51z" clip-rule="evenodd"/><path fill="#DE2910" d="M0-.25h68v51H0v-51z"/><path fill="#FFDE00" d="M8.16 18.62l4.59-13.77 4.59 13.77L5.1 10.205h15.3L8.16 18.62zM28.068 5.114l-4.723 1.047 3.15-3.672-.309 4.942-2.62-4.375 4.502 2.058zm4.768 6.042l-4.76-.867 4.328-2.163-2.201 4.435-.72-5.049 3.353 3.644zm-.696 8.476l-3.992-2.733 4.834-.21-3.819 3.152 1.403-4.903 1.575 4.694zm-6.003 5.538l-2.627-4.064 4.539 1.674-4.74 1.432 3.188-3.98-.36 4.937z"/><g fill-rule="evenodd" clip-rule="evenodd"><path fill="#fff" d="M0 0h68v42H0V0z"/><path fill="#0039A6" d="M0 14h68v28H0V14z"/><path fill="#D52B1E" d="M0 28h68v14H0V28z"/></g><g fill-rule="evenodd" clip-rule="evenodd"><path fill="#000" d="M0 0h68v42H0V0z"/><path fill="#D00" d="M0 14h68v28H0V14z"/><path fill="#FFCE00" d="M0 28h68v14H0V28z"/></g></g><defs><clipPath id="avclip0"><rect width="68" height="42" fill="#fff" rx="4"/></clipPath></defs></svg><svg fill="none" viewBox="0 0 64 64" id="giftcard" xmlns="http://www.w3.org/2000/svg"><path fill="#FDB92B" d="M53.334 16H47.52a8.01 8.01 0 00.48-2.667c0-4.426-3.573-8-8-8-2.8 0-5.226 1.44-6.666 3.6L32 10.72l-1.333-1.813C29.227 6.773 26.8 5.333 24 5.333a7.99 7.99 0 00-8 8c0 .934.187 1.84.48 2.667h-5.813c-2.96 0-5.307 2.373-5.307 5.333l-.026 29.334A5.315 5.315 0 0010.667 56h42.667a5.315 5.315 0 005.333-5.333V21.333A5.315 5.315 0 0053.334 16zM40 10.667c1.467 0 2.667 1.2 2.667 2.666C42.667 14.8 41.467 16 40 16a2.674 2.674 0 01-2.666-2.667c0-1.466 1.2-2.666 2.666-2.666zm-16 0c1.467 0 2.667 1.2 2.667 2.666C26.667 14.8 25.467 16 24 16a2.674 2.674 0 01-2.666-2.667c0-1.466 1.2-2.666 2.666-2.666zm29.334 40H10.667v-5.334h42.667v5.334zm0-13.334H10.667v-16h13.547l-5.547 7.547 4.32 3.12 6.347-8.64L32 19.733l2.667 3.627L41.014 32l4.32-3.12-5.547-7.547h13.547v16z"/></svg><svg fill="none" viewBox="0 0 22 22" id="heart" xmlns="http://www.w3.org/2000/svg"><path fill="var(--heart-hover-color, #4D4D4D)" stroke="(--heart-hover-color,#4d4d4d)" stroke-width=".2" d="M20.014 7.814a4.875 4.875 0 00-.156-1.299 4.542 4.542 0 00-.48-1.17 4.227 4.227 0 00-.782-1.028 4.915 4.915 0 00-1.572-1.053h0a4.863 4.863 0 00-3.693 0h-.002a5.194 5.194 0 00-1.506.974h0l-.008.01-.061.073-.754.753-.754-.753-.06-.073h0l-.01-.01a5.194 5.194 0 00-1.506-.973h0a4.863 4.863 0 00-3.693 0h0a4.914 4.914 0 00-1.573 1.052 4.62 4.62 0 00-1.262 2.199c-.11.424-.163.86-.156 1.298 0 .412.052.823.156 1.222h0c.109.403.266.791.467 1.157h0l.002.001c.217.376.484.721.792 1.027 0 0 0 0 0 0l7.526 7.526.07.07.072-.07 7.525-7.525s0 0 0 0c.309-.304.573-.651.781-1.028a4.657 4.657 0 00.637-2.38zm0 0v.001l-.1-.001h.1s0 0 0 0zm-1.511-.11a3.25 3.25 0 01-.058.812h-.034l-.02.075a3.325 3.325 0 01-.853 1.495l-6.564 6.551-6.563-6.55s0 0 0 0a3.595 3.595 0 01-.545-.706 3.72 3.72 0 01-.333-.802 4.04 4.04 0 01-.1-.855 4.18 4.18 0 01.1-.88c.077-.28.189-.55.333-.802h0c.148-.259.331-.494.544-.704a3.606 3.606 0 011.102-.743 3.466 3.466 0 012.572 0c.408.17.776.418 1.088.73 0 0 0 0 0 0l1.731 1.744.071.072.071-.072 1.732-1.744s0 0 0 0c.312-.312.681-.56 1.088-.73a3.466 3.466 0 012.572 0c.41.177.784.43 1.102.743h0l.001.001c.214.203.393.439.528.7h0l.002.003c.286.505.435 1.076.432 1.657h0v.006z"/></svg><svg fill="none" viewBox="0 0 40 40" id="insta" xmlns="http://www.w3.org/2000/svg"><path fill="#fff" d="M26.25 20a6.25 6.25 0 01-12.5 0c0-.356.037-.704.102-1.042h-2.185v8.327c0 .58.468 1.048 1.048 1.048h14.573a1.048 1.048 0 001.045-1.048v-8.327h-2.185c.064.338.102.686.102 1.042zM20 24.167a4.168 4.168 0 10-.003-8.337A4.168 4.168 0 0020 24.167zm5-8.542h2.498a.627.627 0 00.627-.625v-2.498a.627.627 0 00-.627-.627H25a.627.627 0 00-.627.627V15a.63.63 0 00.627.625zM20 0a20 20 0 100 40 20 20 0 000-40zm10.417 28.102a2.322 2.322 0 01-2.315 2.315H11.898a2.322 2.322 0 01-2.315-2.315V11.898a2.322 2.322 0 012.315-2.315h16.204a2.322 2.322 0 012.315 2.315v16.204z"/></svg><svg fill="none" viewBox="0 0 68 42" id="italy" xmlns="http://www.w3.org/2000/svg"><g clip-path="url(#azclip0)" fill-rule="evenodd" clip-rule="evenodd"><path fill="#fff" d="M0-4.5h68v51H0v-51z"/><path fill="#009246" d="M0-4.5h22.663v51H0v-51z"/><path fill="#CE2B37" d="M45.337-4.5H68v51H45.337v-51z"/></g><defs><clipPath id="azclip0"><rect width="68" height="42" fill="#fff" rx="4"/></clipPath></defs></svg><svg fill="none" viewBox="0 0 16 16" id="like-green" xmlns="http://www.w3.org/2000/svg"><path fill="#27C177" d="M13.328 4.833H9.587l.748-2.245a1.338 1.338 0 00-.183-1.201A1.34 1.34 0 009.07.833H7.995a.669.669 0 00-.513.24L4.35 4.833H2.66c-.735 0-1.333.598-1.333 1.333v6c0 .736.598 1.334 1.333 1.334h8.872a1.34 1.34 0 001.248-.866l1.838-4.9a.668.668 0 00.043-.234V6.166c0-.735-.599-1.333-1.334-1.333zM2.661 6.166h1.334v6H2.66v-6zM13.328 7.38l-1.795 4.787H5.328V5.741l2.979-3.575h.764L8.029 5.288a.665.665 0 00.632.878h4.667V7.38z"/></svg><svg fill="none" viewBox="0 0 24 24" id="message" xmlns="http://www.w3.org/2000/svg"><path fill="#0800A7" fill-opacity=".75" d="M12 2C6.486 2 2 5.589 2 10c0 2.908 1.898 5.516 5 6.934V22l5.34-4.005C17.697 17.852 22 14.32 22 10c0-4.411-4.486-8-10-8zm0 14h-.333L9 18v-2.417l-.641-.247C5.67 14.301 4 12.256 4 10c0-3.309 3.589-6 8-6s8 2.691 8 6-3.589 6-8 6z"/></svg><svg fill="none" viewBox="0 0 24 24" id="minus" xmlns="http://www.w3.org/2000/svg"><path fill="#0800A7" fill-opacity=".75" d="M20.438 11.11H3.563a.188.188 0 00-.188.187v1.406c0 .103.084.188.188.188h16.875a.188.188 0 00.187-.188v-1.406a.188.188 0 00-.188-.188z"/></svg><svg fill="none" viewBox="0 0 24 24" id="pagging-arrow-left" xmlns="http://www.w3.org/2000/svg"><path fill="#797979" d="M13.592 18l1.41-1.41-4.58-4.59 4.58-4.59L13.592 6l-6 6 6 6z"/></svg><svg fill="none" viewBox="0 0 24 24" id="pagging-arrow-right" xmlns="http://www.w3.org/2000/svg"><path fill="#797979" d="M10.002 6l-1.41 1.41 4.58 4.59-4.58 4.59 1.41 1.41 6-6-6-6z"/></svg><svg fill="none" viewBox="0 0 25 24" id="pencil" xmlns="http://www.w3.org/2000/svg"><path fill="#FFAC00" d="M3.5 17.25V21h3.75L18.31 9.94l-3.75-3.75L3.5 17.25zM21.21 7.04a.996.996 0 000-1.41l-2.34-2.34a.996.996 0 00-1.41 0l-1.83 1.83 3.75 3.75 1.83-1.83z"/></svg><svg viewBox="0 0 11 11" id="phone" xmlns="http://www.w3.org/2000/svg"><path fill="#797979" d="M2.212 4.76A9.258 9.258 0 006.24 8.789l1.345-1.345a.608.608 0 01.623-.146 6.971 6.971 0 002.182.348c.336 0 .611.275.611.611v2.133a.613.613 0 01-.611.611C4.65 11 0 6.35 0 .611 0 .275.275 0 .611 0H2.75c.336 0 .611.275.611.611 0 .764.122 1.497.348 2.182a.613.613 0 01-.152.623z"/></svg><svg viewBox="0 0 18 18" id="phone-mob" xmlns="http://www.w3.org/2000/svg"><path fill="#4d4d4d" d="M17.01 12.38c-1.23 0-2.42-.2-3.53-.56a.977.977 0 00-1.01.24l-1.57 1.97c-2.83-1.35-5.48-3.9-6.89-6.83l1.95-1.66c.27-.28.35-.67.24-1.02-.37-1.11-.56-2.3-.56-3.53 0-.54-.45-.99-.99-.99H1.19C.65 0 0 .24 0 .99 0 10.28 7.73 18 17.01 18c.71 0 .99-.63.99-1.18v-3.45c0-.54-.45-.99-.99-.99z"/></svg><svg fill="none" viewBox="0 0 24 24" id="plus" xmlns="http://www.w3.org/2000/svg"><path fill="#0800A7" fill-opacity=".75" d="M11.297 3.563h1.406c.125 0 .188.062.188.187v16.5c0 .125-.063.188-.188.188h-1.406c-.125 0-.188-.063-.188-.188V3.75c0-.125.063-.188.188-.188z"/><path fill="#0800A7" fill-opacity=".75" d="M4.125 11.11h15.75c.125 0 .188.062.188.187v1.406c0 .125-.063.188-.188.188H4.125c-.125 0-.188-.063-.188-.188v-1.406c0-.125.063-.188.188-.188z"/></svg><svg fill="none" viewBox="0 0 24 24" id="plus-yellow" xmlns="http://www.w3.org/2000/svg"><path stroke="#FFAC00" stroke-width="2" d="M3 12h18m-9 9V3"/></svg><svg fill="none" viewBox="0 0 14 18" id="remove" xmlns="http://www.w3.org/2000/svg"><path fill="var(--compare-hover-color, #797979)" d="M1 16c0 1.1.9 2 2 2h8c1.1 0 2-.9 2-2V4H1v12zM3 6h8v10H3V6zm7.5-5l-1-1h-5l-1 1H0v2h14V1h-3.5z"/></svg><svg fill="none" viewBox="0 0 68 42" id="russia" xmlns="http://www.w3.org/2000/svg"><g clip-path="url(#blclip0)"><path fill="#fff" fill-rule="evenodd" d="M0-4.5h68v51H0v-51z" clip-rule="evenodd"/><path fill="#009246" fill-rule="evenodd" d="M0-4.5h22.663v51H0v-51z" clip-rule="evenodd"/><path fill="#CE2B37" fill-rule="evenodd" d="M45.337-4.5H68v51H45.337v-51z" clip-rule="evenodd"/><path fill="#DE2910" d="M0-.25h68v51H0v-51z"/><path fill="#FFDE00" d="M8.16 18.62l4.59-13.77 4.59 13.77L5.1 10.205h15.3L8.16 18.62zM28.068 5.114l-4.723 1.047 3.15-3.672-.309 4.942-2.62-4.375 4.502 2.058zm4.768 6.042l-4.76-.867 4.328-2.163-2.201 4.435-.72-5.049 3.353 3.644zm-.696 8.476l-3.992-2.733 4.834-.21-3.819 3.152 1.403-4.903 1.575 4.694zm-6.003 5.538l-2.627-4.064 4.539 1.674-4.74 1.432 3.188-3.98-.36 4.937z"/><g fill-rule="evenodd" clip-rule="evenodd"><path fill="#F2F2F2" d="M0 0h68v42H0V0z"/><path fill="#0039A6" d="M0 14h68v28H0V14z"/><path fill="#D52B1E" d="M0 28h68v14H0V28z"/></g></g><defs><clipPath id="blclip0"><rect width="68" height="42" fill="#fff" rx="4"/></clipPath></defs></svg><svg fill="none" viewBox="0 0 24 24" id="search" xmlns="http://www.w3.org/2000/svg"><path fill="#4D4D4D" d="M15.5 14h-.79l-.28-.27A6.471 6.471 0 0016 9.5 6.5 6.5 0 109.5 16c1.61 0 3.09-.59 4.23-1.57l.27.28v.79l5 4.99L20.49 19l-4.99-5zm-6 0C7.01 14 5 11.99 5 9.5S7.01 5 9.5 5 14 7.01 14 9.5 11.99 14 9.5 14z"/></svg><svg viewBox="0 0 12 8" id="select" xmlns="http://www.w3.org/2000/svg"><path fill="#111" fill-opacity=".55" d="M10.59.59L12 2 6 8 0 2 1.41.59 6 5.17z"/></svg><svg viewBox="0 0 18 20" id="share" xmlns="http://www.w3.org/2000/svg"><path fill="#4d4d4d" d="M15 14.08c-.76 0-1.44.3-1.96.77L5.91 10.7c.05-.23.09-.46.09-.7 0-.24-.04-.47-.09-.7l7.05-4.11c.54.5 1.25.81 2.04.81 1.66 0 3-1.34 3-3s-1.34-3-3-3-3 1.34-3 3c0 .24.04.47.09.7L5.04 7.81C4.5 7.31 3.79 7 3 7c-1.66 0-3 1.34-3 3s1.34 3 3 3c.79 0 1.5-.31 2.04-.81l7.12 4.16c-.05.21-.08.43-.08.65 0 1.61 1.31 2.92 2.92 2.92 1.61 0 2.92-1.31 2.92-2.92 0-1.61-1.31-2.92-2.92-2.92z"/></svg><svg fill="none" viewBox="0 0 22 23" id="share-2" xmlns="http://www.w3.org/2000/svg"><path fill="#fff" d="M11.914 6.966v-2.8a.916.916 0 011.565-.647l6.416 6.416a.916.916 0 010 1.296l-6.416 6.417A.915.915 0 0111.914 17v-2.838c-.26-.018-.518-.027-.773-.027-4.974 0-7.552 3.275-7.665 3.42a.912.912 0 01-1.473-.02.917.917 0 01-.172-.535c0-8.364 7.412-9.79 10.083-10.034zm-.773 5.336c.593 0 1.203.041 1.81.122a.917.917 0 01.796.91v1.453l4.204-4.204-4.204-4.203v1.453c0 .506-.431.917-.937.917-.834 0-7.437.184-8.872 5.89 1.516-1.117 3.924-2.338 7.203-2.338z"/></svg><svg fill="none" viewBox="0 0 24 24" id="spoller-arrow" xmlns="http://www.w3.org/2000/svg"><path fill="#797979" d="M18.295 10.705l-1.41-1.41-4.59 4.58-4.59-4.58-1.41 1.41 6 6 6-6z"/></svg><svg fill="none" viewBox="0 0 16 16" id="tip" xmlns="http://www.w3.org/2000/svg"><path fill="#3F3F3F" d="M7.2 12.8h1.6v-1.6H7.2v1.6zM8 0C3.584 0 0 3.584 0 8s3.584 8 8 8 8-3.584 8-8-3.584-8-8-8zm0 14.4A6.408 6.408 0 011.6 8c0-3.528 2.872-6.4 6.4-6.4 3.528 0 6.4 2.872 6.4 6.4 0 3.528-2.872 6.4-6.4 6.4zM8 3.2a3.2 3.2 0 00-3.2 3.2h1.6c0-.88.72-1.6 1.6-1.6.88 0 1.6.72 1.6 1.6 0 1.6-2.4 1.4-2.4 4h1.6c0-1.8 2.4-2 2.4-4A3.2 3.2 0 008 3.2z"/></svg><svg fill="none" viewBox="0 0 294 214" id="truck" xmlns="http://www.w3.org/2000/svg"><path fill="#FFAC00" d="M253.909 53.5h-40.091V0H26.728C12.027 0 0 12.037 0 26.75v147.125h26.727c0 22.202 17.908 40.125 40.091 40.125 22.184 0 40.091-17.923 40.091-40.125h80.182c0 22.202 17.907 40.125 40.091 40.125 22.183 0 40.091-17.923 40.091-40.125H294V107l-40.091-53.5zM66.819 193.938c-11.093 0-20.046-8.962-20.046-20.063 0-11.101 8.953-20.063 20.045-20.063 11.092 0 20.046 8.962 20.046 20.063 0 11.101-8.954 20.063-20.046 20.063zM247.226 73.563L273.42 107h-59.602V73.562h33.409zm-20.045 120.375c-11.092 0-20.046-8.962-20.046-20.063 0-11.101 8.954-20.063 20.046-20.063 11.092 0 20.045 8.962 20.045 20.063 0 11.101-8.953 20.063-20.045 20.063z"/></svg><svg fill="none" viewBox="0 0 40 40" id="vk" xmlns="http://www.w3.org/2000/svg"><path fill="#fff" d="M20 0C8.954 0 0 8.954 0 20s8.954 20 20 20 20-8.954 20-20S31.046 0 20 0zm7.692 22.565s1.768 1.745 2.204 2.556c.012.017.019.033.023.042.177.297.218.529.131.702-.146.287-.646.429-.817.441h-3.125c-.216 0-.67-.056-1.22-.435-.423-.296-.84-.781-1.246-1.254-.607-.704-1.132-1.313-1.66-1.313a.636.636 0 00-.199.031c-.4.13-.912.7-.912 2.221 0 .475-.375.748-.64.748H18.8c-.488 0-3.027-.17-5.277-2.544-2.754-2.906-5.233-8.735-5.254-8.79-.156-.376.166-.578.518-.578h3.157c.42 0 .558.256.654.483.112.265.525 1.317 1.202 2.5 1.098 1.93 1.77 2.712 2.31 2.712a.625.625 0 00.29-.075c.704-.391.573-2.902.542-3.422 0-.098-.002-1.123-.363-1.615-.258-.356-.698-.492-.964-.542.107-.149.25-.27.414-.352.483-.241 1.354-.277 2.219-.277h.481c.938.013 1.18.073 1.519.159.687.164.702.608.642 2.127a33.05 33.05 0 00-.038 1.493c0 .125-.006.259-.006.4-.021.773-.046 1.65.5 2.01a.45.45 0 00.237.07c.19 0 .76 0 2.307-2.653.476-.853.89-1.74 1.24-2.654.03-.054.122-.22.23-.285a.555.555 0 01.259-.06h3.71c.404 0 .681.06.733.216.092.248-.016 1.004-1.71 3.298l-.756.998c-1.536 2.012-1.536 2.115.096 3.642z"/></svg></svg>