<svg xmlns="http://www.w3.org/2000/svg" width="96" height="12" fill="none"><g clip-path="url(#clip0)"><path fill="#797979" d="M23.19.126H.78L0 2.387h7.718l-3.352 9.57h7.639l3.352-9.57h7.055l.779-2.26zm56.282 0h-8.067l-4.132 11.832h8.069L79.472.126zm-1.478 5.492l4.794 6.34h9.277L86.725 5.7 96.002.126h-9.433l-8.575 5.492zm-9.16-3.231l.772-2.26H48.995L46.15 8.242c-.194.526-.194 1.132.154 1.576.118.16 1.052 1.2 1.247 1.453.167.219.38.395.624.514.244.12.51.178.78.172h16.527l.772-2.26h-11.53c-.702 0-1.051-.567-.858-1.091l.507-1.494h12.785l.772-2.261H55.148l.857-2.465h12.83zM45.134.126H24.631l-4.13 11.832h7.834l3.313-9.57h5.847c.622 0 .858.485.74.97-.157.484-.352 1.05-.506 1.412a1.456 1.456 0 01-.549.665 1.38 1.38 0 01-.816.223h-5.496L35.663 12h9.042l-4.054-4.725h2.454c.45.022.894-.103 1.272-.357.377-.254.668-.624.832-1.058.352-.888 1.091-3.069 1.327-3.8C46.965.806 46.3.12 45.132.12"/></g><defs><clipPath id="clip0"><path fill="#fff" d="M0 0h96v12H0z"/></clipPath></defs></svg>